<svg width="24" height="27" viewBox="0 0 24 27" fill="none" xmlns="http://www.w3.org/2000/svg">
<g id="Bell">
<path id="Vector" fill-rule="evenodd" clip-rule="evenodd" d="M13.0012 6C13.0012 5.44772 12.5535 5 12.0012 5C11.4489 5 11.0012 5.44772 11.0012 6V6.75H10.4438C8.21867 6.75 6.37707 8.48001 6.23818 10.7007L6.01717 14.2342C5.93291 15.5814 5.48062 16.8797 4.70956 17.9876C4.01288 18.9886 4.6331 20.3712 5.84403 20.5165L9.25116 20.9254V22C9.25116 23.5188 10.4824 24.75 12.0012 24.75C13.52 24.75 14.7512 23.5188 14.7512 22V20.9254L18.1583 20.5165C19.3693 20.3712 19.9895 18.9886 19.2928 17.9876C18.5217 16.8797 18.0694 15.5814 17.9852 14.2342L17.7642 10.7007C17.6253 8.48001 15.7837 6.75 13.5586 6.75H13.0012V6ZM10.7512 22C10.7512 22.6904 11.3108 23.25 12.0012 23.25C12.6916 23.25 13.2512 22.6904 13.2512 22V21.25H10.7512V22Z" fill="white"/>
<circle id="Ellipse 2761" cx="18" cy="6" r="4" fill="#FF6161"/>
</g>
</svg>
