<?xml version="1.0" encoding="utf-8"?>
<!-- Generator: Adobe Illustrator 26.2.1, SVG Export Plug-In . SVG Version: 6.00 Build 0)  -->
<svg version="1.1" id="Layer_1" xmlns="http://www.w3.org/2000/svg" xmlns:xlink="http://www.w3.org/1999/xlink" x="0px" y="0px"
	 viewBox="0 0 512 512" style="enable-background:new 0 0 512 512;" xml:space="preserve">
<style type="text/css">
	.st0{fill:url(#SVGID_1_);}
</style>
<linearGradient id="SVGID_1_" gradientUnits="userSpaceOnUse" x1="760.4376" y1="-38.2344" x2="3037.696" y2="-2315.4924" gradientTransform="matrix(0.1322 0 0 -0.1322 5.2068 72.8918)">
	<stop  offset="0" style="stop-color:#00C9FF"/>
	<stop  offset="1" style="stop-color:#4B00DB"/>
</linearGradient>
<path class="st0" d="M264.4,274.3c0,7.2-8.8,10.9-13.9,5.8c-5.1-5.1-1.5-13.9,5.8-13.9C260.8,266.1,264.4,269.8,264.4,274.3
	L264.4,274.3z M300,220.4v-18.9c0-24.2-19.6-43.8-43.8-43.8c-24.2,0-43.8,19.6-43.8,43.8v18.9c0.5-0.1,2.4-0.4,5.2-0.4
	C298.5,220.2,295.2,219.7,300,220.4z M256.3,73.4l-149.4,62.4c-4.4,28.3-30.3,237.5,147.8,304.9h3.2
	C436,373.3,410.1,164.1,405.7,135.8L256.3,73.4z M330.3,318.2c0,19.6-15.9,35.5-35.5,35.5h-77c-19.6,0-35.5-15.9-35.5-35.5v-62.6
	c0-13.2,7.2-24.9,18.3-31.1v-22.9c0-30.8,25-55.8,55.8-55.8s55.8,25,55.8,55.8v22.9c10.8,6,18.3,17.6,18.3,31.1L330.3,318.2z
	 M294.8,232h-77c-13,0-23.5,10.5-23.5,23.5v62.6c0,13,10.5,23.5,23.5,23.5h77c13,0,23.5-10.5,23.5-23.5c0-2.8,0-59.9,0-62.6
	c0-6.5-2.6-12.4-6.9-16.6C304,231.5,295,232.1,294.8,232L294.8,232z M262.3,293.5v18.8c0,3.3-2.7,6-6,6s-6-2.7-6-6h0v-18.8
	c-8.2-2.6-14.1-10.2-14.1-19.2c0-11.1,9-20.1,20.1-20.1c11.1,0,20.1,9,20.1,20.1C276.4,283.3,270.4,291,262.3,293.5L262.3,293.5z
	 M445.4,125.2c-2.1-11.6-10-21.3-20.9-25.8L269.7,34.7c-8.6-3.6-18.3-3.6-26.9,0L88,99.4c-10.9,4.5-18.7,14.3-20.9,25.8
	c-0.5,2.7-12.2,67.7,2.3,142.9c19.1,99.2,75.7,175.3,171.8,211.2c3.9,1.5,8.1,2.2,12.2,2.2c3.7-0.2,9.7,0.8,17.7-2.2
	c96.2-36,152.7-112,171.8-211.2C457.6,192.9,445.9,127.9,445.4,125.2L445.4,125.2z M261.1,452.2L261.1,452.2
	c-2,0.8-8.7,0.6-10.3-0.2C50,376.4,95.4,131.2,95.6,130.5v0c0.4-2.2,2-3.9,3.9-4.6L254,61.4v0c1.7-0.7,3.5-0.6,4.9,0.1L413.4,126h0
	c2,0.8,3.3,2.7,3.6,4.7C418.4,138.7,459.5,378,261.1,452.2z"/>
</svg>
